<svg width="62" height="66" viewBox="0 0 62 66" fill="none" xmlns="http://www.w3.org/2000/svg">
<g id="Group 18742">
<path id="layer2" d="M37.3733 47.9336H52.2L60.7333 65.0003H1L9.53333 47.9336H24.36" stroke="#FF5B26" stroke-width="2" stroke-miterlimit="10" stroke-linecap="round" stroke-linejoin="round"/>
<path id="layer1" d="M30.8653 1C25.7448 1 20.8341 3.03409 17.2134 6.65479C13.5927 10.2755 11.5586 15.1862 11.5586 20.3067C11.5586 37.6933 30.8653 54.76 30.8653 54.76C30.8653 54.76 50.1719 37.6933 50.1719 20.3067C50.1719 15.1862 48.1378 10.2755 44.5171 6.65479C40.8964 3.03409 35.9857 1 30.8653 1Z" stroke="#FF5B26" stroke-width="2" stroke-miterlimit="10" stroke-linecap="round" stroke-linejoin="round"/>
<path id="layer1_2" d="M30.8648 26.6008C34.3995 26.6008 37.2648 23.7354 37.2648 20.2008C37.2648 16.6662 34.3995 13.8008 30.8648 13.8008C27.3302 13.8008 24.4648 16.6662 24.4648 20.2008C24.4648 23.7354 27.3302 26.6008 30.8648 26.6008Z" stroke="#FF5B26" stroke-width="2" stroke-miterlimit="10" stroke-linecap="round" stroke-linejoin="round"/>
</g>
</svg>
