<svg width="66" height="22" viewBox="0 0 66 22" fill="none" xmlns="http://www.w3.org/2000/svg">
<g id="logo">
<g id="icon">
<path d="M9.77944 0.253263C10.3643 -0.0844213 11.0849 -0.0844207 11.6698 0.253263L19.4143 4.72454L14.0592 7.86018C13.2302 7.02799 12.0831 6.51295 10.8157 6.51295C9.49764 6.51295 8.30966 7.07001 7.47436 7.96155L1.99023 4.75037L9.77944 0.253263Z" fill="#A29E92"/>
<path d="M6.43048 9.7726L0.945312 6.56081V15.5389L6.41006 12.3391C6.29786 11.9423 6.23783 11.5236 6.23783 11.0909C6.23783 10.6326 6.30516 10.1901 6.43048 9.7726Z" fill="#A29E92"/>
<path d="M7.42523 14.1669L2.0764 17.2989L9.77944 21.7462C10.3643 22.0839 11.0849 22.0839 11.6698 21.7462L19.3281 17.3247L14.1103 14.2694C13.2777 15.1322 12.1094 15.6688 10.8157 15.6688C9.47158 15.6688 8.26273 15.0895 7.42523 14.1669Z" fill="#A29E92"/>
<path d="M15.181 12.4741L20.5036 15.5907C20.5038 15.5786 20.5039 15.5665 20.5039 15.5544V6.5088L15.1585 9.63875C15.311 10.095 15.3936 10.5833 15.3936 11.0909C15.3936 11.573 15.3191 12.0377 15.181 12.4741Z" fill="#A29E92"/>
</g>
<g id="Text">
<path fill-rule="evenodd" clip-rule="evenodd" d="M26.8408 16.2429C27.608 16.7111 28.5296 16.9453 29.6056 16.9453C30.6817 16.9453 31.6033 16.7111 32.3705 16.2429C33.1426 15.7696 33.733 15.112 34.1415 14.2701C34.5549 13.4282 34.7617 12.4518 34.7617 11.3409C34.7617 10.2299 34.5549 9.25352 34.1415 8.41161C33.733 7.56971 33.1426 6.91461 32.3705 6.44633C31.6033 5.97307 30.6817 5.73644 29.6056 5.73644C28.5296 5.73644 27.608 5.97307 26.8408 6.44633C26.0736 6.91461 25.4833 7.56971 25.0698 8.41161C24.6613 9.25352 24.457 10.2299 24.457 11.3409C24.457 12.4518 24.6613 13.4282 25.0698 14.2701C25.4833 15.112 26.0736 15.7696 26.8408 16.2429ZM31.4065 14.7708C30.9283 15.0946 30.328 15.254 29.6056 15.249C28.8833 15.239 28.2805 15.0722 27.7973 14.7483C27.319 14.4245 26.9603 13.9737 26.7212 13.3958C26.4821 12.813 26.3625 12.128 26.3625 11.3409C26.3625 10.5537 26.4821 9.86627 26.7212 9.27843C26.9653 8.69059 27.3265 8.23476 27.8047 7.91095C28.283 7.58714 28.8833 7.42773 29.6056 7.43271C30.328 7.44267 30.9283 7.60956 31.4065 7.93337C31.8897 8.25718 32.2509 8.71052 32.49 9.29338C32.7341 9.87125 32.8562 10.5537 32.8562 11.3409C32.8562 12.128 32.7341 12.8154 32.49 13.4033C32.2509 13.9911 31.8897 14.447 31.4065 14.7708Z" fill="#A29E92"/>
<path d="M35.6513 16.343C35.6513 16.5518 35.8205 16.7211 36.0293 16.7211H37.0816C37.2904 16.7211 37.4596 16.5518 37.4596 16.343V12.6187C37.4596 12.3098 37.497 12.0234 37.5717 11.7593C37.6464 11.4903 37.761 11.2512 37.9155 11.042C38.0749 10.8327 38.2791 10.6609 38.5282 10.5263C38.7773 10.3769 39.0563 10.2897 39.3651 10.2648C39.481 10.2556 39.5918 10.2529 39.6975 10.2566C39.9494 10.2654 40.1946 10.08 40.1946 9.82796V8.97101C40.1946 8.7862 40.0609 8.62588 39.8764 8.61559C39.7382 8.60789 39.5977 8.60964 39.4548 8.62085C39.2007 8.63579 38.9517 8.68312 38.7075 8.76282C38.4684 8.83755 38.2492 8.94217 38.05 9.07667C37.8158 9.22114 37.6141 9.40546 37.4447 9.62964C37.3709 9.72801 37.3037 9.83139 37.2429 9.93979V9.02881C37.2429 8.82001 37.0737 8.65074 36.8649 8.65074H36.0293C35.8205 8.65074 35.6513 8.82001 35.6513 9.02881V16.343Z" fill="#A29E92"/>
<path fill-rule="evenodd" clip-rule="evenodd" d="M44.901 16.9453C44.1139 16.9453 43.4538 16.7585 42.9208 16.3848C42.8077 16.3056 42.7006 16.2203 42.5995 16.129V16.343C42.5995 16.5518 42.4302 16.7211 42.2214 16.7211H41.3859C41.1771 16.7211 41.0078 16.5518 41.0078 16.343V6.33869C41.0078 6.12989 41.1771 5.96062 41.3859 5.96062H42.4456C42.6544 5.96062 42.8236 6.12989 42.8236 6.33869V9.04177C42.8483 9.02319 42.8732 9.00493 42.8984 8.987C43.4214 8.61337 44.0666 8.42656 44.8338 8.42656C45.596 8.42656 46.256 8.61337 46.814 8.987C47.3769 9.35565 47.8128 9.86129 48.1217 10.5039C48.4305 11.1416 48.585 11.8689 48.585 12.6859C48.585 13.493 48.433 14.2178 48.1292 14.8604C47.8253 15.5031 47.3968 16.0112 46.8439 16.3848C46.2909 16.7585 45.6433 16.9453 44.901 16.9453ZM42.8012 11.3035C42.6667 11.697 42.5995 12.1579 42.5995 12.6859C42.5995 13.209 42.6667 13.6698 42.8012 14.0683C42.9407 14.4669 43.1574 14.7782 43.4513 15.0024C43.7502 15.2216 44.1413 15.3312 44.6245 15.3312C45.0928 15.3312 45.4789 15.2141 45.7828 14.98C46.0867 14.7459 46.3108 14.4295 46.4553 14.031C46.6048 13.6275 46.6795 13.1791 46.6795 12.6859C46.6795 12.1977 46.6048 11.7543 46.4553 11.3558C46.3059 10.9523 46.0742 10.6335 45.7604 10.3993C45.4465 10.1602 45.048 10.0406 44.5647 10.0406C44.1064 10.0406 43.7328 10.1527 43.4439 10.3769C43.1549 10.5961 42.9407 10.905 42.8012 11.3035Z" fill="#A29E92"/>
<path d="M49.7837 16.343C49.7837 16.5518 49.953 16.7211 50.1618 16.7211H51.2066C51.4154 16.7211 51.5846 16.5518 51.5846 16.343V9.02881C51.5846 8.82001 51.4154 8.65074 51.2066 8.65074H50.1618C49.953 8.65074 49.7837 8.82001 49.7837 9.02881V16.343Z" fill="#A29E92"/>
<path d="M57.9553 16.4071C57.9553 16.5892 57.8258 16.7464 57.6457 16.7727C57.2193 16.835 56.7995 16.8602 56.3861 16.8481C55.878 16.8382 55.4221 16.746 55.0186 16.5716C54.6151 16.3923 54.3087 16.1108 54.0995 15.7272C53.9152 15.3785 53.818 15.0223 53.8081 14.6587C53.7981 14.295 53.7931 13.884 53.7931 13.4257V10.063H52.7066C52.4978 10.063 52.3285 9.89378 52.3285 9.68497V9.02881C52.3285 8.82001 52.4978 8.65074 52.7066 8.65074H53.7931V6.78705C53.7931 6.57824 53.9624 6.40897 54.1712 6.40897H55.2085C55.4173 6.40897 55.5865 6.57824 55.5865 6.78704V8.65074H57.5773C57.7861 8.65074 57.9553 8.82001 57.9553 9.02881V9.68497C57.9553 9.89378 57.7861 10.063 57.5773 10.063H55.5865V13.3211C55.5865 13.6449 55.589 13.9289 55.594 14.173C55.604 14.4171 55.6563 14.6163 55.7509 14.7708C55.9303 15.0697 56.2167 15.2366 56.6103 15.2714C56.8865 15.2959 57.1898 15.2934 57.5201 15.2638C57.7501 15.2433 57.9553 15.4191 57.9553 15.65V16.4071Z" fill="#A29E92"/>
<path d="M60.0592 16.3923C60.647 16.761 61.3569 16.9453 62.1889 16.9453C63.0906 16.9453 63.8528 16.7261 64.4755 16.2877C64.9975 15.916 65.3882 15.4113 65.6477 14.7736C65.7305 14.57 65.6003 14.3488 65.3857 14.3008L64.2769 14.0529C64.0882 14.0107 63.9015 14.1198 63.8162 14.2933C63.687 14.5564 63.5206 14.7679 63.3172 14.9277C63.0432 15.1469 62.6671 15.2565 62.1889 15.2565C61.5114 15.2565 61.0008 15.0198 60.657 14.5466C60.3133 14.0733 60.1414 13.4531 60.1414 12.6859C60.1414 12.1927 60.2136 11.7518 60.3581 11.3633C60.5026 10.9747 60.7268 10.6708 61.0306 10.4516C61.3345 10.2274 61.7206 10.1154 62.1889 10.1154C62.6024 10.1154 62.971 10.2374 63.2948 10.4815C63.53 10.6552 63.7166 10.8801 63.8545 11.1562C63.9447 11.3368 64.1431 11.4488 64.338 11.396L65.4274 11.1009C65.6253 11.0473 65.7467 10.8447 65.6787 10.6513C65.4567 10.0197 65.0755 9.50983 64.5353 9.12151C63.9026 8.65821 63.1279 8.42656 62.2113 8.42656C61.3943 8.42656 60.6894 8.61088 60.0966 8.97953C59.5037 9.34319 59.0454 9.84635 58.7216 10.489C58.4028 11.1266 58.2409 11.859 58.2359 12.6859C58.2409 13.4979 58.3978 14.2253 58.7067 14.8679C59.0205 15.5105 59.4714 16.0187 60.0592 16.3923Z" fill="#A29E92"/>
<path d="M49.7407 6.47611L50.248 5.9689C50.4694 5.74743 50.8285 5.74743 51.05 5.9689L51.5572 6.47611C51.7787 6.69758 51.7787 7.05666 51.5572 7.27813L51.05 7.78534C50.8285 8.00681 50.4694 8.00681 50.248 7.78534L49.7407 7.27813C49.5193 7.05666 49.5193 6.69758 49.7407 6.47611Z" fill="#A29E92"/>
</g>
</g>
</svg>
