<svg width="78" height="22" viewBox="0 0 78 22" fill="none" xmlns="http://www.w3.org/2000/svg">
<g id="Logo">
<g id="text">
<g id="Union">
<path d="M36.4385 13.276V21.0829H38.975V12.7687C38.975 11.7165 38.7495 10.7864 38.2986 9.97851C37.8476 9.17057 37.2276 8.54114 36.4385 8.0902C35.6681 7.63926 34.7756 7.41379 33.761 7.41379C32.7464 7.41379 31.8351 7.64865 31.0272 8.11838C30.4186 8.45806 29.9113 8.89368 29.5053 9.42526V0.959728H26.9688V21.0829H29.5053V13.276C29.5053 12.5996 29.6556 11.9983 29.9562 11.4722C30.2568 10.9461 30.6702 10.5328 31.1963 10.2322C31.7224 9.93153 32.3236 9.78122 33.0001 9.78122C34.0147 9.78122 34.8414 10.11 35.4802 10.7676C36.1191 11.4253 36.4385 12.2614 36.4385 13.276Z" fill="#A19E92"/>
<path d="M43.4238 20.6319C44.3069 21.1205 45.3027 21.3647 46.4113 21.3647C47.5386 21.3647 48.5251 21.1205 49.3706 20.6319C50.2349 20.1246 50.9113 19.4294 51.3998 18.5463C51.8883 17.6633 52.1326 16.6392 52.1326 15.4743V7.69563H49.5961V15.3616C49.5961 16.4701 49.3142 17.3438 48.7505 17.9827C48.1869 18.6027 47.4071 18.9127 46.4113 18.9127C45.7537 18.9127 45.1806 18.7718 44.6921 18.49C44.2036 18.2081 43.8278 17.8042 43.5648 17.2781C43.3205 16.7332 43.1984 16.0944 43.1984 15.3616V7.69563H40.6618V15.4743C40.6618 16.6392 40.9061 17.6633 41.3946 18.5463C41.8831 19.4294 42.5595 20.1246 43.4238 20.6319Z" fill="#A19E92"/>
<path fill-rule="evenodd" clip-rule="evenodd" d="M60.3235 21.3647C58.9894 21.3647 57.7869 21.0641 56.716 20.4628C55.645 19.8428 54.7995 19.0067 54.1794 17.9545C53.5594 16.9023 53.2494 15.7092 53.2494 14.3752C53.2494 13.0599 53.55 11.8762 54.1512 10.824C54.7713 9.77183 55.598 8.9451 56.6314 8.34385C57.6836 7.72381 58.8579 7.41379 60.1544 7.41379C61.3944 7.41379 62.4842 7.69563 63.4237 8.2593C64.3819 8.82297 65.1241 9.60272 65.6502 10.5985C66.1951 11.5944 66.4675 12.7217 66.4675 13.9806C66.4675 14.1685 66.4581 14.3752 66.4393 14.6006C66.4205 14.8073 66.383 15.0516 66.3266 15.3334H55.8426C55.9318 15.8547 56.0914 16.3339 56.3214 16.7708C56.6972 17.466 57.2327 18.0109 57.9279 18.4054C58.6231 18.7812 59.4216 18.9691 60.3235 18.9691C61.075 18.9691 61.7608 18.8376 62.3809 18.5745C63.0197 18.3115 63.5646 17.9169 64.0155 17.3908L65.6502 19.0536C65.0114 19.8052 64.2222 20.3783 63.2828 20.7729C62.3621 21.1674 61.3757 21.3647 60.3235 21.3647ZM56.2932 11.895C56.0826 12.294 55.9341 12.7356 55.8478 13.2196H63.9953C63.926 12.6655 63.7825 12.177 63.5646 11.7541C63.2452 11.1152 62.7942 10.6267 62.2118 10.2885C61.6293 9.93153 60.9247 9.75304 60.098 9.75304C59.2337 9.75304 58.4727 9.94093 57.8151 10.3167C57.1575 10.6925 56.6502 11.2186 56.2932 11.895Z" fill="#A19E92"/>
<path d="M68.1059 20.2374C68.6696 20.5944 69.2802 20.8762 69.9378 21.0829C70.6142 21.2708 71.3282 21.3647 72.0798 21.3647C73.5829 21.3647 74.776 20.9983 75.6591 20.2655C76.561 19.5328 77.0119 18.5369 77.0119 17.2781C77.0119 16.4514 76.8334 15.7843 76.4765 15.277C76.1383 14.7697 75.6967 14.3658 75.1518 14.0651C74.6069 13.7645 74.0339 13.5296 73.4326 13.3605C72.8314 13.1727 72.2489 12.9942 71.6852 12.8251C71.1403 12.656 70.6988 12.4493 70.3606 12.205C70.0224 11.9608 69.8533 11.6132 69.8533 11.1622C69.8533 10.7113 70.0412 10.3637 70.417 10.1194C70.8115 9.85637 71.3752 9.72485 72.108 9.72485C72.8032 9.72485 73.4232 9.85637 73.9681 10.1194C74.5318 10.3825 75.0015 10.7583 75.3773 11.2468L77.0119 9.61212C76.4858 8.87934 75.8094 8.33446 74.9827 7.97746C74.1748 7.60168 73.2447 7.41379 72.1925 7.41379C71.1967 7.41379 70.3418 7.5735 69.6278 7.89291C68.9326 8.21233 68.3877 8.67266 67.9932 9.27391C67.5986 9.85638 67.4013 10.5516 67.4013 11.3595C67.4013 12.1674 67.5704 12.8157 67.9086 13.3042C68.2656 13.7927 68.7165 14.1779 69.2614 14.4597C69.8063 14.7415 70.3794 14.9764 70.9806 15.1643C71.6007 15.3334 72.1831 15.5119 72.728 15.6998C73.2729 15.8689 73.7145 16.0944 74.0527 16.3762C74.4096 16.6392 74.5881 17.015 74.5881 17.5035C74.5881 17.9921 74.3721 18.3772 73.9399 18.6591C73.5078 18.9221 72.8971 19.0536 72.108 19.0536C71.3188 19.0536 70.6049 18.9127 69.966 18.6309C69.3272 18.3303 68.7635 17.8793 68.275 17.2781L66.6404 18.9127C67.0537 19.42 67.5422 19.8616 68.1059 20.2374Z" fill="#A19E92"/>
</g>
<g id="TM">
<path d="M74.6366 3.20068V3.70015H74.0353V5.21976H73.4646V3.70015H72.8633V3.20068H74.6366Z" fill="#A19E92"/>
<path d="M76.9801 3.17041V5.22884H76.4094V4.2299L75.9912 4.6991H75.8203L75.4021 4.2299V5.22884H74.8314V3.17041H75.0328L75.9058 4.04827L76.7787 3.17041H76.9801Z" fill="#A19E92"/>
</g>
</g>
<g id="icon">
<path id="1" d="M2.64492 6.48588C3.43481 9.01857 6.1283 10.4314 8.66099 9.64149C11.1937 8.8516 17.1923 4.72788 16.4024 2.1952C15.6125 -0.337493 8.33322 -0.320079 5.80053 0.469814C3.26784 1.25971 1.85503 3.95319 2.64492 6.48588Z" fill="#A19E92"/>
<path id="3" d="M1.11492 20.3736C2.60148 21.8602 5.0114 21.8602 6.49796 20.3736C7.98452 18.887 10.6759 13.7855 9.18962 12.2989C7.70306 10.8125 2.60148 13.504 1.11492 14.9904C-0.37164 16.477 -0.37164 18.887 1.11492 20.3736Z" fill="#A19E92"/>
<path id="2" d="M15.3389 21.8351C17.9015 22.5217 20.5356 21.001 21.2223 18.4384C21.9088 15.8757 21.6315 8.60179 19.0688 7.91507C16.5062 7.22847 12.629 13.3892 11.9423 15.9518C11.2555 18.5144 12.7762 21.1484 15.3389 21.8351Z" fill="#A19E92"/>
</g>
</g>
</svg>
