<svg width="82" height="22" viewBox="0 0 82 22" fill="none" xmlns="http://www.w3.org/2000/svg">
<g id="Logo">
<g id="Volume">
<path d="M46.3553 16.75V3.67956H48.7236V16.75H46.3553Z" fill="#A29E92"/>
<path d="M26.3086 4.04112L31.3162 16.75H33.2686L38.3305 4.04112H35.7092L32.3219 12.964L28.9661 4.04112H26.3086Z" fill="#A29E92"/>
<path fill-rule="evenodd" clip-rule="evenodd" d="M38.6842 16.3342C39.3952 16.7319 40.1907 16.9308 41.0705 16.9308C41.9503 16.9308 42.7397 16.7319 43.4387 16.3342C44.1498 15.9244 44.7102 15.3761 45.12 14.6891C45.5297 13.9901 45.7346 13.2127 45.7346 12.357C45.7346 11.5013 45.5297 10.736 45.12 10.0611C44.7102 9.37415 44.1498 8.83181 43.4387 8.43409C42.7397 8.02432 41.9442 7.81944 41.0524 7.81944C40.1846 7.81944 39.3952 8.02432 38.6842 8.43409C37.9731 8.83181 37.4127 9.37415 37.0029 10.0611C36.5931 10.736 36.3882 11.5013 36.3882 12.357C36.3882 13.2127 36.5931 13.9901 37.0029 14.6891C37.4247 15.3761 37.9851 15.9244 38.6842 16.3342ZM42.2275 14.436C41.89 14.6288 41.4983 14.7253 41.0524 14.7253C40.6185 14.7253 40.2328 14.6288 39.8954 14.436C39.5579 14.2311 39.2928 13.9539 39.1 13.6044C38.9071 13.2429 38.8107 12.8331 38.8107 12.3751C38.8107 11.9171 38.9071 11.5134 39.1 11.1639C39.2928 10.8144 39.5579 10.5432 39.8954 10.3504C40.2328 10.1455 40.6185 10.043 41.0524 10.043C41.4983 10.043 41.89 10.1455 42.2275 10.3504C42.5649 10.5432 42.8301 10.8144 43.0229 11.1639C43.2157 11.5134 43.3121 11.9171 43.3121 12.3751C43.3121 12.8331 43.2157 13.2429 43.0229 13.6044C42.8421 13.9539 42.577 14.2311 42.2275 14.436Z" fill="#A29E92"/>
<path d="M51.5812 16.4427C52.1838 16.7681 52.8707 16.9308 53.6421 16.9308C54.4134 16.9308 55.0943 16.7741 55.6849 16.4608C56.2875 16.1353 56.7515 15.6834 57.0769 15.1049C57.4144 14.5264 57.5831 13.8515 57.5831 13.0802V8.0183H55.2149V13.0259C55.2149 13.5683 55.0763 13.9901 54.7991 14.2914C54.5219 14.5927 54.1362 14.7433 53.6421 14.7433C53.3167 14.7433 53.0334 14.6771 52.7924 14.5445C52.5514 14.4119 52.3706 14.2191 52.2501 13.966C52.1295 13.7008 52.0693 13.3875 52.0693 13.0259V8.0183H49.683V13.0802C49.683 13.8394 49.8517 14.5083 50.1892 15.0868C50.5266 15.6653 50.9906 16.1173 51.5812 16.4427Z" fill="#A29E92"/>
<path d="M58.5651 16.75V8.0183H60.9333V8.77587C61.1452 8.56905 61.3862 8.39487 61.6564 8.25331C62.1626 7.97612 62.7351 7.83752 63.3739 7.83752C63.9765 7.83752 64.5248 7.97612 65.019 8.25331C65.4331 8.47551 65.7752 8.77812 66.0454 9.16113C66.3375 8.78837 66.6944 8.49178 67.116 8.27139C67.6463 7.98214 68.2368 7.83752 68.8877 7.83752C69.5385 7.83752 70.123 7.97612 70.6412 8.25331C71.1595 8.51846 71.5692 8.90412 71.8705 9.41031C72.1718 9.91649 72.3225 10.5191 72.3225 11.2181V16.75H69.9543V11.5978C69.9543 11.0916 69.7916 10.6999 69.4662 10.4227C69.1528 10.1334 68.7611 9.98881 68.2911 9.98881C67.9898 9.98881 67.7066 10.0551 67.4414 10.1877C67.1883 10.3082 66.9895 10.489 66.8448 10.73C66.7002 10.971 66.6279 11.2603 66.6279 11.5978V16.75H64.2597V11.5978C64.2597 11.0916 64.097 10.6999 63.7716 10.4227C63.4582 10.1334 63.0665 9.98881 62.5965 9.98881C62.2831 9.98881 61.9999 10.0551 61.7468 10.1877C61.4937 10.3082 61.2949 10.489 61.1502 10.73C61.0056 10.971 60.9333 11.2603 60.9333 11.5978V16.75H58.5651Z" fill="#A29E92"/>
<path fill-rule="evenodd" clip-rule="evenodd" d="M75.0738 16.3523C75.7848 16.738 76.5983 16.9308 77.5143 16.9308C78.2254 16.9308 78.8822 16.8042 79.4848 16.5511C80.0995 16.2981 80.6177 15.9244 81.0395 15.4303L79.6475 14.0383C79.3824 14.3396 79.069 14.5686 78.7074 14.7253C78.3459 14.8699 77.9421 14.9422 77.4962 14.9422C77.0021 14.9422 76.5682 14.8398 76.1946 14.6349C75.821 14.4179 75.5317 14.1166 75.3268 13.731C75.2498 13.572 75.1881 13.4025 75.1419 13.2224L81.5276 13.2067C81.5758 13.0018 81.606 12.821 81.618 12.6644C81.6421 12.4956 81.6542 12.3329 81.6542 12.1763C81.6542 11.3447 81.4674 10.6035 81.0937 9.95265C80.7322 9.28979 80.226 8.77155 79.5752 8.39794C78.9364 8.01227 78.1952 7.81944 77.3516 7.81944C76.4959 7.81944 75.7185 8.02432 75.0195 8.43409C74.3205 8.83181 73.7661 9.37415 73.3563 10.0611C72.9586 10.736 72.7598 11.5074 72.7598 12.3751C72.7598 13.2549 72.9646 14.0383 73.3744 14.7253C73.7962 15.4122 74.3627 15.9546 75.0738 16.3523ZM75.1439 11.4504C75.1863 11.2905 75.2412 11.1408 75.3088 11.0012C75.5016 10.6155 75.7728 10.3202 76.1223 10.1154C76.4718 9.89842 76.8816 9.78995 77.3516 9.78995C77.7975 9.78995 78.1711 9.88636 78.4724 10.0792C78.7858 10.26 79.0208 10.5251 79.1775 10.8746C79.2587 11.0429 79.3232 11.2307 79.3709 11.4381L75.1439 11.4504Z" fill="#A29E92"/>
</g>
<path id="Icon" fill-rule="evenodd" clip-rule="evenodd" d="M11.7615 21.9995C17.8364 21.9995 22.7612 17.0747 22.7612 10.9997C22.7612 4.92475 17.8364 0 11.7615 0C5.68647 0 0.761719 4.92475 0.761719 10.9997C0.761719 17.0747 5.68647 21.9995 11.7615 21.9995ZM16.3208 4.26708C16.4514 4.37748 16.5265 4.53977 16.5265 4.71075L16.5262 6.92069L16.5265 7.06612L16.5262 7.08349V14.4812C16.5262 15.766 15.4848 16.8074 14.2 16.8074C12.9152 16.8074 11.8738 15.766 11.8738 14.4812C11.8738 13.1964 12.9152 12.1548 14.2 12.1548C14.6238 12.1548 15.0209 12.2682 15.3631 12.4661V7.75259L9.5473 8.7221V15.6443C9.5473 16.9291 8.50584 17.9705 7.22107 17.9705C5.93631 17.9705 4.89484 16.9291 4.89484 15.6443C4.89484 14.3595 5.93631 13.3179 7.22107 13.3179C7.64481 13.3179 8.04223 13.4313 8.38419 13.6292L8.38444 8.22923L8.38419 8.08381L8.38444 8.06643V5.87387C8.38444 5.58967 8.58992 5.347 8.87054 5.30023L15.8492 4.13712C16.0179 4.109 16.1904 4.15654 16.3208 4.26708Z" fill="#A29E92"/>
</g>
</svg>
