<svg width="105" height="22" viewBox="0 0 105 22" fill="none" xmlns="http://www.w3.org/2000/svg">
<g id="Logo">
<g id="icon">
<path id="3" d="M0 14.6813L7.43875 11.3705L11.7204 13.8536L12.5853 21.9999L7.309 21.9564L8.08747 16.2932L7.17926 15.7704L2.72466 19.2555L0 14.6813Z" fill="#A29E92"/>
<path id="2" d="M12.1992 13.5051L18.773 18.3406L21.3679 13.6793L16.0916 11.5447V10.4992L21.3679 8.32107L18.773 3.70338L12.1992 8.53888V13.5051Z" fill="#A29E92"/>
<path id="1" d="M11.7204 8.1463L12.5853 0L7.309 0.0871252L8.08747 5.75033L7.17926 6.27309L2.68141 2.78804L0 7.3186L7.43875 10.6294L11.7204 8.1463Z" fill="#A29E92"/>
</g>
<g id="text">
<path d="M38.968 10.0242V17.6561H41.8075V7.92993H37.6722V10.0242H38.968Z" fill="#A29E92"/>
<path d="M38.8791 6.56334C39.1395 6.83543 39.5359 6.97147 40.0684 6.97147C40.6008 6.97147 40.9912 6.83543 41.2396 6.56334C41.5 6.27925 41.63 5.92427 41.63 5.49842C41.63 5.06056 41.5 4.70559 41.2396 4.4335C40.9912 4.14955 40.6008 4.0075 40.0684 4.0075C39.5359 4.0075 39.1395 4.14955 38.8791 4.4335C38.6308 4.70559 38.5064 5.06056 38.5064 5.49842C38.5064 5.92427 38.6308 6.27925 38.8791 6.56334Z" fill="#A29E92"/>
<path d="M29.0822 17.4431C29.8867 17.8099 30.8748 17.9934 32.046 17.9934C33.1464 17.9934 34.093 17.8218 34.8858 17.4786C35.6786 17.1355 36.288 16.6562 36.7138 16.041C37.1517 15.4138 37.3706 14.6862 37.3706 13.8579C37.3706 13.0533 37.1637 12.373 36.7496 11.8168C36.3471 11.2489 35.7853 10.8052 35.0633 10.4858C34.3416 10.1544 33.5074 9.94731 32.5608 9.86457L31.567 9.77583C30.9754 9.72838 30.5492 9.56876 30.2889 9.29652C30.0288 9.02444 29.8985 8.7049 29.8985 8.33821C29.8985 8.05412 29.9696 7.79389 30.1114 7.55724C30.2534 7.30873 30.4664 7.11352 30.7505 6.97147C31.0463 6.82957 31.4072 6.75855 31.8331 6.75855C32.2827 6.75855 32.6554 6.84129 32.9512 7.00706C33.0163 7.04207 33.0781 7.07951 33.1364 7.11924L33.1504 7.1291C33.1721 7.1441 33.1935 7.15968 33.2141 7.1754C33.3939 7.31273 33.5371 7.4755 33.6434 7.6637C33.7972 7.92407 33.8743 8.21388 33.8743 8.53342H36.7138C36.7138 7.68142 36.5186 6.94189 36.1282 6.31483C35.7378 5.67591 35.1759 5.18489 34.4422 4.84163C33.7203 4.48666 32.8506 4.30917 31.8331 4.30917C30.8628 4.30917 30.0228 4.47494 29.3128 4.80619C28.6029 5.12572 28.0467 5.58716 27.6446 6.1905C27.2539 6.79399 27.0587 7.50994 27.0587 8.33821C27.0587 9.48587 27.4434 10.4087 28.2125 11.107C28.9816 11.8051 30.0111 12.2073 31.3006 12.3138L32.277 12.4025C33.0695 12.4736 33.6434 12.6333 33.9984 12.8817C34.3534 13.1184 34.5308 13.4437 34.5308 13.8579C34.5308 14.0482 34.4997 14.2267 34.4374 14.3935C34.3911 14.5172 34.3276 14.6346 34.247 14.7453C34.0575 14.9938 33.7794 15.189 33.4128 15.3311C33.0461 15.473 32.5905 15.544 32.046 15.544C31.4427 15.544 30.9517 15.4613 30.573 15.2955C30.1943 15.118 29.9105 14.8874 29.721 14.6034C29.5435 14.3193 29.4549 14.0118 29.4549 13.6804H26.6328C26.6328 14.5205 26.8397 15.2659 27.2539 15.9167C27.668 16.5558 28.2776 17.0645 29.0822 17.4431Z" fill="#A29E92"/>
<path d="M48.1436 17.7803C47.1616 17.7803 46.3687 17.662 45.7654 17.4253C45.1618 17.1768 44.7182 16.7687 44.4341 16.2008C44.162 15.6209 44.026 14.8401 44.026 13.8579V10.0065H42.5529V7.92993H44.026V5.30321H46.6705V7.92993H49.5103V10.0065H46.6705V13.9645C46.6705 14.4259 46.7889 14.7809 47.0255 15.0293C47.2739 15.2659 47.6229 15.3842 48.0727 15.3842H49.5103V17.7803H48.1436Z" fill="#A29E92"/>
<path fill-rule="evenodd" clip-rule="evenodd" d="M52.9295 17.5674C53.5682 17.8513 54.3019 17.9934 55.1302 17.9934C55.9465 17.9934 56.6684 17.8513 57.2955 17.5674C57.9225 17.2834 58.4433 16.887 58.8574 16.3783C59.2715 15.8694 59.5496 15.2896 59.6914 14.6389H57.0825C56.9642 14.9347 56.7393 15.1832 56.408 15.3842C56.0768 15.5854 55.6506 15.6861 55.1302 15.6861C54.8078 15.6861 54.5194 15.6479 54.2656 15.5716C54.0724 15.5136 53.8992 15.4334 53.7457 15.3311C53.3908 15.0944 53.1304 14.763 52.9649 14.3372C52.9189 14.2159 52.8794 14.089 52.8463 13.9568C52.8126 13.8229 52.7854 13.6835 52.7648 13.5385H59.8689V12.58C59.8689 11.6926 59.6797 10.8762 59.301 10.1308C58.9223 9.37341 58.3721 8.76406 57.6504 8.30263C56.9405 7.82933 56.0648 7.59268 55.0236 7.59268C54.2307 7.59268 53.5208 7.73473 52.8937 8.01868C52.2787 8.29077 51.7639 8.66346 51.3498 9.13676C50.9357 9.61006 50.6161 10.1485 50.3912 10.752C50.1783 11.3435 50.0719 11.9647 50.0719 12.6155V12.9704C50.0719 13.5977 50.1783 14.2129 50.3912 14.8163C50.6161 15.408 50.9357 15.9463 51.3498 16.4314C51.7757 16.9047 52.3021 17.2834 52.9295 17.5674ZM52.8137 11.7835C52.8217 11.7459 52.83 11.7089 52.8391 11.6724C52.8637 11.5721 52.892 11.476 52.9243 11.3841C52.9426 11.3318 52.962 11.2807 52.9826 11.2312C53.1601 10.7933 53.4205 10.4621 53.7634 10.2373C53.8918 10.1532 54.0307 10.0849 54.1802 10.0323C54.4311 9.94417 54.7123 9.90001 55.0236 9.90001C55.5089 9.90001 55.911 10.0125 56.2305 10.2373C56.5618 10.4502 56.8104 10.7637 56.9759 11.1779C56.9894 11.2113 57.0022 11.2453 57.0145 11.2797C57.034 11.3346 57.0522 11.3909 57.0691 11.4487C57.0943 11.5345 57.1163 11.6234 57.1354 11.7153C57.1494 11.7831 57.1617 11.8524 57.1723 11.9234H52.7866C52.7948 11.8759 52.804 11.8294 52.8137 11.7835Z" fill="#A29E92"/>
<path d="M61.0407 17.6561V7.92993H63.2949V10.3796C63.3254 10.234 63.3603 10.0942 63.3995 9.96017C63.4326 9.84728 63.4686 9.73838 63.5078 9.63378C63.7564 8.97113 64.1291 8.47425 64.6259 8.14286C65.1229 7.79975 65.7322 7.62826 66.4542 7.62826H66.5782C67.3119 7.62826 67.9212 7.79975 68.4065 8.14286C68.9033 8.47425 69.2763 8.97113 69.5246 9.63378L69.5441 9.68379L69.5609 9.72952C69.5721 9.69723 69.5838 9.66536 69.5955 9.63378C69.8559 8.97113 70.2346 8.47425 70.7316 8.14286C71.2283 7.79975 71.838 7.62826 72.5596 7.62826H72.684C73.4173 7.62826 74.0327 7.79975 74.5297 8.14286C75.0384 8.47425 75.4231 8.97113 75.6832 9.63378C75.9436 10.2964 76.0739 11.1247 76.0739 12.1186V17.6561H73.2341V11.9588C73.2341 11.4264 73.0921 10.9945 72.808 10.6633C72.5359 10.3319 72.1455 10.1662 71.6368 10.1662C71.128 10.1662 70.7256 10.3379 70.4298 10.681C70.134 11.0122 69.9859 11.4559 69.9859 12.0121V17.6561H67.1284V11.9588C67.1284 11.4264 66.9867 10.9945 66.7026 10.6633C66.4305 10.3319 66.0458 10.1662 65.549 10.1662C65.0283 10.1662 64.6202 10.3379 64.3243 10.681C64.0285 11.0122 63.8805 11.4559 63.8805 12.0121V17.6561H61.0407Z" fill="#A29E92"/>
<path fill-rule="evenodd" clip-rule="evenodd" d="M83.6596 15.7821V17.6561H85.9134V11.6926C85.9134 10.7933 85.736 10.0598 85.381 9.49173C85.026 8.91197 84.5056 8.48011 83.8193 8.19616C83.1448 7.91221 82.3105 7.77017 81.3168 7.77017C81.1013 7.77017 80.8764 7.77245 80.642 7.77717C80.5034 7.78003 80.3613 7.7836 80.2161 7.78789C79.8257 7.79975 79.447 7.81747 79.0803 7.84119L78.8003 7.86005C78.6562 7.87006 78.521 7.87992 78.3938 7.88992C78.2984 7.89735 78.2078 7.90478 78.122 7.91221V10.3083C78.4887 10.2846 78.8969 10.2608 79.3467 10.2373C79.4725 10.2307 79.5971 10.2245 79.7208 10.2188C79.8995 10.2105 80.0758 10.2034 80.2502 10.1971C80.3879 10.1921 80.5245 10.1877 80.66 10.184C81.0859 10.1721 81.4291 10.1662 81.6895 10.1662C82.2099 10.1662 82.5886 10.2904 82.8253 10.5389C83.0619 10.7874 83.1803 11.1601 83.1803 11.6572V11.6926H81.4231C80.5594 11.6926 79.7963 11.8051 79.1335 12.0299C78.471 12.2428 77.9563 12.58 77.5896 13.0415C77.2226 13.4912 77.0394 14.071 77.0394 14.7809C77.0394 15.4317 77.1871 15.9937 77.483 16.467C77.7788 16.9285 78.1869 17.2834 78.7076 17.5318C79.2401 17.7803 79.8555 17.9046 80.5534 17.9046C81.2279 17.9046 81.7958 17.7803 82.2574 17.5318C82.7307 17.2834 83.0974 16.9285 83.3577 16.467C83.4035 16.3893 83.4464 16.3085 83.4861 16.2248C83.5424 16.1062 83.5927 15.9816 83.637 15.851L83.6596 15.7821ZM83.1803 14.0532V13.2723H81.4054C80.9084 13.2723 80.524 13.3964 80.2519 13.645C79.9915 13.8816 79.8612 14.207 79.8612 14.6211C79.8612 14.8161 79.8938 14.9933 79.9586 15.1529C80.0238 15.3129 80.1215 15.4551 80.2519 15.5796C80.524 15.8162 80.9084 15.9346 81.4054 15.9346C81.5 15.9346 81.5915 15.9298 81.6798 15.9206C81.7518 15.913 81.8218 15.9023 81.8896 15.8884C82.0199 15.862 82.1425 15.8241 82.2574 15.7748C82.5178 15.6565 82.7307 15.4613 82.8962 15.189C83.0619 14.9169 83.1565 14.5382 83.1803 14.0532Z" fill="#A29E92"/>
<path d="M87.6129 17.6561V7.92993H89.867V11.1403C89.9751 10.2238 90.2472 9.48487 90.6836 8.92383C91.2752 8.17844 92.1269 7.80575 93.2393 7.80575H93.612V10.255H92.902C92.1212 10.255 91.5176 10.4679 91.0917 10.8939C90.6656 11.308 90.4527 11.9115 90.4527 12.7042V17.6561H87.6129Z" fill="#A29E92"/>
<path d="M97.2132 13.1125H98.1538L101.224 17.6561H104.419L100.526 12.076L103.727 7.92993H100.745L97.2132 12.5546V4.69973H94.3734V17.6561H97.2132V13.1125Z" fill="#A29E92"/>
</g>
</g>
</svg>
