<svg width="84" height="22" viewBox="0 0 84 22" fill="none" xmlns="http://www.w3.org/2000/svg">
<g id="logo">
<g id="Union">
<path d="M44.7891 10.7004C44.2661 11.2089 44.0045 11.95 44.0045 12.9235V19.0044H40.5173V7.06056H43.2853V11.002C43.4178 9.87697 43.752 8.97 44.2878 8.2811C45.0144 7.3657 46.0605 6.908 47.4264 6.908H47.8841V9.91574H47.0123C46.0533 9.91574 45.3122 10.1773 44.7891 10.7004Z" fill="#A29E92"/>
<path fill-rule="evenodd" clip-rule="evenodd" d="M55.3597 17.5441C55.5094 17.2901 55.633 17.0099 55.7302 16.7034V19.0044H58.4982V11.6812C58.4982 10.5769 58.2802 9.676 57.8443 8.97855C57.4084 8.26657 56.7691 7.73622 55.9263 7.38749C55.0981 7.03877 54.0738 6.86441 52.8532 6.86441C52.4318 6.86441 51.9814 6.87167 51.5019 6.8862C51.0224 6.90073 50.5574 6.92253 50.107 6.95159C49.6566 6.98065 49.2643 7.00971 48.9301 7.03877V9.98113C49.3805 9.95207 49.8818 9.92301 50.4339 9.89395C50.9861 9.86489 51.5237 9.84309 52.0468 9.82856C52.5699 9.81403 52.9913 9.80677 53.3109 9.80677C53.9502 9.80677 54.4152 9.95933 54.7058 10.2645C54.9964 10.5696 55.1417 11.0273 55.1417 11.6376V11.6812H52.984C51.9233 11.6812 50.9861 11.8192 50.1724 12.0953C49.3587 12.3568 48.7266 12.7709 48.2762 13.3376C47.8258 13.8897 47.6006 14.6017 47.6006 15.4735C47.6006 16.2727 47.7822 16.9629 48.1454 17.5441C48.5087 18.1108 49.01 18.5467 49.6493 18.8518C50.3032 19.1569 51.0587 19.3095 51.916 19.3095C52.7442 19.3095 53.4417 19.1569 54.0084 18.8518C54.5896 18.5467 55.04 18.1108 55.3597 17.5441ZM54.793 15.9748C54.9964 15.6406 55.1127 15.1757 55.1417 14.5799V13.6209H52.9622C52.3519 13.6209 51.8797 13.7735 51.5455 14.0786C51.2258 14.3692 51.066 14.7688 51.066 15.2774C51.066 15.7569 51.2258 16.1492 51.5455 16.4543C51.8797 16.7449 52.3519 16.8902 52.9622 16.8902C53.3545 16.8902 53.7032 16.8248 54.0084 16.6941C54.328 16.5488 54.5896 16.309 54.793 15.9748Z" fill="#A29E92"/>
<path d="M65.7288 19.4185C64.6971 19.4185 63.7963 19.2514 63.0262 18.9172C62.2706 18.5685 61.6385 18.1035 61.13 17.5223C60.6214 16.9411 60.2436 16.2872 59.9966 15.5607C59.7496 14.8197 59.6261 14.0568 59.6261 13.2722V12.8581C59.6261 12.0444 59.7569 11.2671 60.0184 10.526C60.28 9.77044 60.665 9.10206 61.1736 8.52085C61.6821 7.93964 62.3142 7.48194 63.0697 7.14775C63.8398 6.81355 64.7189 6.64645 65.707 6.64645C66.7822 6.64645 67.7339 6.85714 68.5621 7.27852C69.3904 7.68536 70.0515 8.2593 70.5455 9.00034C71.0395 9.74138 71.3156 10.5914 71.3737 11.5504H67.9519C67.8938 11.0128 67.6758 10.5623 67.298 10.1991C66.9348 9.8213 66.4044 9.63241 65.707 9.63241C65.1258 9.63241 64.639 9.77771 64.2467 10.0683C63.8689 10.3589 63.5856 10.7585 63.3967 11.2671C63.2078 11.7756 63.1133 12.3786 63.1133 13.0761C63.1133 13.7154 63.2005 14.2966 63.3749 14.8197C63.5492 15.3282 63.8253 15.7278 64.2031 16.0184C64.5954 16.2945 65.104 16.4325 65.7288 16.4325C66.1937 16.4325 66.586 16.3526 66.9057 16.1928C67.2399 16.0184 67.5014 15.7859 67.6903 15.4953C67.8938 15.1902 68.0173 14.8415 68.0609 14.4492H71.4609C71.4173 15.4372 71.1413 16.309 70.6327 17.0646C70.1241 17.8056 69.4485 18.3868 68.6057 18.8082C67.763 19.2151 66.804 19.4185 65.7288 19.4185Z" fill="#A29E92"/>
<path fill-rule="evenodd" clip-rule="evenodd" d="M75.3694 18.8954C76.1541 19.2441 77.0549 19.4185 78.072 19.4185C79.0746 19.4185 79.961 19.2441 80.7311 18.8954C81.5012 18.5467 82.1405 18.0599 82.649 17.4351C83.1576 16.8103 83.4991 16.0983 83.6734 15.2992H80.4695C80.3242 15.6624 80.0481 15.9676 79.6413 16.2146C79.2345 16.4616 78.7114 16.5851 78.072 16.5851C77.3746 16.5851 76.8079 16.4398 76.372 16.1492C75.9361 15.8586 75.6164 15.4517 75.413 14.9287C75.2996 14.6288 75.2178 14.3019 75.1676 13.9479H83.8914V12.7709C83.8914 11.6812 83.6589 10.6786 83.1939 9.76318C82.729 8.83325 82.0533 8.08494 81.167 7.51827C80.2951 6.93706 79.2199 6.64645 77.9413 6.64645C76.9677 6.64645 76.0959 6.82082 75.3258 7.16954C74.5703 7.50374 73.9382 7.96144 73.4296 8.54264C72.9211 9.12385 72.5288 9.78497 72.2527 10.526C71.9912 11.2525 71.8604 12.0154 71.8604 12.8145V13.2504C71.8604 14.0205 71.9912 14.7761 72.2527 15.5171C72.5288 16.2436 72.9211 16.9048 73.4296 17.5005C73.9527 18.0817 74.5993 18.5467 75.3694 18.8954ZM75.1943 11.9645C75.2487 11.652 75.3289 11.3687 75.4348 11.1145C75.6528 10.5769 75.9724 10.17 76.3938 9.89395C76.8152 9.61788 77.331 9.47984 77.9413 9.47984C78.537 9.47984 79.031 9.61788 79.4233 9.89395C79.8302 10.1555 80.1353 10.5405 80.3387 11.0491C80.4489 11.3244 80.5292 11.6296 80.5797 11.9645H75.1943Z" fill="#A29E92"/>
<path d="M32.2141 19.0044V6.21055H27.7461V3.09383H40.2784V6.21055H35.7885V19.0044H32.2141Z" fill="#A29E92"/>
</g>
<g id="Icon">
<g id="Vector">
<path fill-rule="evenodd" clip-rule="evenodd" d="M11.4646 1.99995C6.49414 1.99995 2.4648 6.02929 2.4648 10.9997C2.4648 15.9702 6.49414 19.9995 11.4646 19.9995C16.435 19.9995 20.4644 15.9702 20.4644 10.9997C20.4644 6.02929 16.435 1.99995 11.4646 1.99995ZM0.464844 10.9997C0.464844 4.92475 5.38959 0 11.4646 0C17.5396 0 22.4643 4.92475 22.4643 10.9997C22.4643 17.0747 17.5396 21.9995 11.4646 21.9995C5.38959 21.9995 0.464844 17.0747 0.464844 10.9997Z" fill="#A29E92"/>
<path fill-rule="evenodd" clip-rule="evenodd" d="M16.9521 7.2705C17.2452 6.3471 16.3695 5.47983 15.449 5.78187L9.17869 7.83931C8.81573 7.95841 8.53215 8.24474 8.41657 8.60883L6.47367 14.729C6.18052 15.6524 7.05621 16.5196 7.97674 16.2176L14.247 14.1602C14.61 14.0411 14.8936 13.7547 15.0092 13.3906L16.9521 7.2705ZM11.7117 12.4282C12.5006 12.4282 13.1402 11.7887 13.1402 10.9997C13.1402 10.2108 12.5006 9.57119 11.7117 9.57119C10.9227 9.57119 10.2832 10.2108 10.2832 10.9997C10.2832 11.7887 10.9227 12.4282 11.7117 12.4282Z" fill="#A29E92"/>
</g>
</g>
</g>
</svg>
