<svg width="32" height="48" viewBox="0 0 32 48" fill="none" xmlns="http://www.w3.org/2000/svg">
<g id="Scroll">
<path id="layer2" d="M14.4 1H17.6C25.0006 1 31 6.99938 31 14.4V33.6C31 41.0006 25.0006 47 17.6 47H14.4C6.99938 47 1 41.0006 1 33.6V14.4C1 6.99938 6.99938 1 14.4 1Z" stroke="#191B1D" stroke-width="2" stroke-linecap="round" stroke-linejoin="round"/>
<path id="layer1" d="M19.1969 14.3999C19.1969 15.2486 18.8597 16.0625 18.2596 16.6627C17.6595 17.2628 16.8456 17.5999 15.9969 17.5999C15.1482 17.5999 14.3343 17.2628 13.7341 16.6627C13.134 16.0625 12.7969 15.2486 12.7969 14.3999V11.1999C12.7969 10.3512 13.134 9.5373 13.7341 8.93718C14.3343 8.33707 15.1482 7.99992 15.9969 7.99992C16.8456 7.99992 17.6595 8.33707 18.2596 8.93718C18.8597 9.5373 19.1969 10.3512 19.1969 11.1999V14.3999Z" stroke="#191B1D" stroke-width="2" stroke-linecap="round" stroke-linejoin="round"/>
</g>
</svg>
