<svg width="240" height="32" viewBox="0 0 240 32" fill="none" xmlns="http://www.w3.org/2000/svg">
<path id="Vector 1" d="M38.6236 3.30093C27.1014 9.54379 10.0744 6.25179 3.83585 9.09791C-4.70113 12.3506 2.79915 23.3 9.03771 23.3C15.2763 23.3 20.7815 25.1484 26.1907 27.9946C31.0914 30.5731 34.157 28.4011 40.7239 25.1484C47.2908 21.8957 59.4456 24.9674 71.2601 26.3682C84.977 27.9946 91.8146 24.33 102.535 29.2143C112.049 33.549 122.229 24.2283 138.813 27.7751C149.238 30.0047 155.787 25.7948 167.279 23.7619C178.771 21.7289 189.688 23.89 198.554 29.9888C207.419 36.0876 224.908 26.5621 231.474 24.5292C238.041 22.4962 241.411 13.8064 239.441 11.7734C237.47 9.74051 231.583 10.0672 215.494 12.9133C199.405 15.7594 193.824 2.90339 177.735 3.30998C161.646 3.71657 155.079 8.18903 139.646 10.6286C124.214 13.0681 105.636 11.944 91.8458 9.09791C78.0553 6.25179 55.2365 -5.70007 38.6236 3.30093Z" fill="#FFC200"/>
</svg>
